<svg height="512pt" viewBox="-32 0 512 512" width="512pt" xmlns="http://www.w3.org/2000/svg"><path d="m417.660156 364.117188-83.417968-81.976563v222.359375h85.945312v-138.460938c-.898438-.53125-1.753906-1.160156-2.527344-1.921874zm0 0" fill="#e7e7e7"/><path d="m334.242188 282.140625v222.359375h28.875v-193.984375zm0 0" fill="#cecece"/><path d="m29.582031 364.117188 82.914063-81.976563v222.359375h-85.429688v-138.460938c.894532-.53125 1.746094-1.160156 2.515625-1.921874zm0 0" fill="#e7e7e7"/><path d="m29.582031 364.117188c-.769531.761718-1.621093 1.390624-2.515625 1.921874v138.460938h28.875v-134.671875c0-2.160156.949219-4.175781 2.492188-5.6875.007812-.007813.011718-.015625.019531-.023437l54.042969-53.429688v-28.546875zm0 0" fill="#cecece"/><path d="m377.015625 391.703125c-9.261719 0-16.839844 7.445313-16.839844 16.546875v26.171875c0 2.367187 1.953125 4.285156 4.359375 4.285156h24.960938c2.40625 0 4.355468-1.917969 4.355468-4.285156v-26.171875c0-9.101562-7.578124-16.546875-16.835937-16.546875zm0 0" fill="#554e56"/><path d="m385.011719 434.421875v-26.171875c0-4.277344 1.6875-8.171875 4.417969-11.117188-3.082032-3.324218-7.507813-5.429687-12.414063-5.429687-9.261719 0-16.839844 7.445313-16.839844 16.546875v26.171875c0 2.367187 1.949219 4.285156 4.355469 4.285156h24.835938c-2.40625 0-4.355469-1.917969-4.355469-4.285156zm0 0" fill="#433f43"/><path d="m69.980469 391.703125c-9.203125 0-16.734375 7.445313-16.734375 16.546875v26.171875c0 2.367187 1.9375 4.285156 4.328125 4.285156h24.8125c2.390625 0 4.332031-1.917969 4.332031-4.285156v-26.171875c0-9.101562-7.535156-16.546875-16.738281-16.546875zm0 0" fill="#554e56"/><path d="m78.078125 434.421875v-26.171875c0-4.238281 1.648437-8.101562 4.320313-11.039062-3.070313-3.367188-7.496094-5.507813-12.417969-5.507813-9.203125 0-16.734375 7.445313-16.734375 16.546875v26.171875c0 2.367187 1.9375 4.285156 4.332031 4.285156h24.808594c.003906 0 .007812-.003906.011719-.003906-2.386719-.003906-4.320313-1.917969-4.320313-4.28125zm0 0" fill="#433f43"/><path d="m436.0625 347.03125-101.820312-100.0625v36.171875l83.417968 81.976563c5.082032 4.992187 13.320313 4.992187 18.402344 0 5.082031-4.996094 5.082031-13.09375 0-18.085938zm0 0" fill="#ec5569"/><path d="m362.027344 287.191406c-2.632813-2.589844-4.117188-6.132812-4.117188-9.824218v-7.140626l-23.667968-23.257812v36.171875l83.417968 81.976563c5.082032 4.992187 13.320313 4.992187 18.402344 0 .914062-.898438 1.660156-1.902344 2.246094-2.96875zm0 0" fill="#e63950"/><path d="m11.289062 347.03125 101.207032-100.0625v36.171875l-82.914063 81.976563c-5.054687 4.992187-13.242187 4.992187-18.292969 0-5.050781-4.996094-5.050781-13.09375 0-18.085938zm0 0" fill="#ec5569"/><path d="m34.953125 347.03125 77.542969-76.660156v-23.402344l-101.207032 100.0625c-5.050781 4.996094-5.050781 13.089844 0 18.085938 5.050782 4.996093 13.238282 4.996093 18.292969 0l3.089844-3.054688c-2.59375-4.832031-1.832031-10.960938 2.28125-15.03125zm0 0" fill="#e63950"/><path d="m260.910156 37.222656h-29.722656v-29.722656c0-4.144531-3.359375-7.5-7.5-7.5-4.144531 0-7.5 3.355469-7.5 7.5v29.722656h-29.722656c-4.140625 0-7.5 3.355469-7.5 7.5 0 4.144532 3.359375 7.5 7.5 7.5h29.722656v57.804688c0 4.144531 3.359375 7.5 7.5 7.5s7.5-3.355469 7.5-7.5v-57.804688h29.722656c4.140625 0 7.5-3.355468 7.5-7.5 0-4.144531-3.359375-7.5-7.5-7.5zm0 0" fill="#ec5569"/><path d="m334.730469 240.613281-111.042969-111.042969-111.046875 111.042969c-.421875.425781-.871094.796875-1.335937 1.148438v262.738281h224.765624v-262.738281c-.464843-.351563-.914062-.722657-1.339843-1.148438zm0 0" fill="#e7e7e7"/><path d="m223.6875 129.570312-111.046875 111.042969c-.421875.425781-.871094.796875-1.335937 1.148438v262.738281h28.875v-260.804688c0-1.160156.5-2.246093 1.324218-3.066406.003906-.003906.007813-.007812.011719-.015625l96.609375-96.605469zm0 0" fill="#cecece"/><path d="m334.730469 244.617188-111.042969-111.046876-111.046875 111.046876c-4.992187 4.992187-13.089844 4.992187-18.085937 0-4.992188-4.996094-4.992188-13.09375 0-18.085938l120.089843-120.089844c4.996094-4.992187 13.089844-4.992187 18.085938 0l120.089843 120.089844c4.992188 4.992188 4.992188 13.089844 0 18.085938-4.996093 4.992187-13.09375 4.992187-18.089843 0zm0 0" fill="#ec5569"/><path d="m118.222656 226.53125 117.296875-117.300781-2.789062-2.789063c-4.996094-4.992187-13.089844-4.992187-18.085938 0l-120.089843 120.089844c-4.992188 4.992188-4.992188 13.089844 0 18.085938 4.996093 4.992187 13.09375 4.992187 18.085937 0l3.234375-3.234376c-2.449219-4.804687-1.671875-10.832031 2.347656-14.851562zm0 0" fill="#e63950"/><path d="m223.6875 334.011719-1.003906 1.015625v56.171875l-1.996094 113.300781h57.90625v-115.585938c0-30.320312-24.582031-54.902343-54.90625-54.902343zm0 0" fill="#af6c6c"/><path d="m249.496094 340.453125c-7.695313-4.105469-16.476563-6.441406-25.808594-6.441406l-1.003906 1.015625v56.171875l-1.996094 113.300781h26.816406l1.992188-120.933594zm0 0" fill="#9c5e5e"/><path d="m223.6875 216.414062c-14.746094 0-26.816406 12.066407-26.816406 26.816407v42.414062c0 3.832031 3.109375 6.9375 6.941406 6.9375h39.75c3.832031 0 6.941406-3.105469 6.941406-6.9375v-42.414062c-.003906-14.75-12.066406-26.816407-26.816406-26.816407zm0 0" fill="#554e56"/><path d="m224.707031 285.644531v-42.414062c0-9.664063 5.179688-18.171875 12.898438-22.894531-4.066407-2.484376-8.832031-3.921876-13.917969-3.921876-14.75 0-26.816406 12.066407-26.816406 26.816407v42.414062c0 3.832031 3.109375 6.9375 6.941406 6.9375h27.832031c-3.832031 0-6.9375-3.105469-6.9375-6.9375zm0 0" fill="#433f43"/><path d="m223.6875 334.011719c-30.324219 0-54.90625 24.582031-54.90625 54.902343v115.585938h54.90625zm0 0" fill="#af6c6c"/><path d="m217.398438 334.378906c-27.359376 3.125-48.617188 26.34375-48.617188 54.535156v115.585938h26.816406v-123.371094c0-19.09375 8.558594-36.050781 21.800782-46.75zm0 0" fill="#9c5e5e"/><path d="m439.875 512h-432.375c-4.140625 0-7.5-3.355469-7.5-7.5s3.359375-7.5 7.5-7.5h432.375c4.140625 0 7.5 3.355469 7.5 7.5s-3.359375 7.5-7.5 7.5zm0 0" fill="#57bf93"/></svg>