<svg id="Layer_1" enable-background="new 0 0 52 52" height="512" viewBox="0 0 52 52" width="512" xmlns="http://www.w3.org/2000/svg"><g id="_x32_2"><g><g><g><g><path d="m14.3038702 32.6462898c-2.1795712-5.7602253-7.8395076-11.3307934-7.8971-11.3864002-.2005801-.1956158-.2045517-.5173378-.0079436-.7189121.1956153-.1985931.5173383-.2045517.7189112-.0079441.2383132.2333488 5.8783894 5.7850513 8.1373997 11.7538013.0992966.262146-.0327682.5560646-.2959061.6553612-.2651816.0988808-.5557623-.0341415-.6553612-.2959061z" fill="#fcb73e"/></g></g></g><g><g><g><path d="m20.1517658 33.6333046c-.0059566 0-.0119152 0-.0188656 0-.2800179-.0109253-.499464-.2462578-.4895344-.5272675.0139008-.36343.3336372-8.9268131 1.2074528-11.2751904.0983047-.2631359.3961945-.39818.6533756-.2998772.2641296.0983047.3971882.3902378.2998772.6533756-.8172169 2.1964531-1.1409245 10.8720436-1.1439037 10.9594231-.0099297.2740594-.2353344.4895364-.5084019.4895364z" fill="#fcb73e"/></g></g></g><g><g><g><path d="m16.2951965 32.4442978h.0188656c.2800179-.0109215.4994659-.2462578.4895363-.5272675-.0139027-.3634262-.3336391-8.9268112-1.2074537-11.2751884-.0983038-.2631359-.3961954-.39818-.6533747-.2998772-.2641306.0983047-.3971891.3902378-.2998772.6533756.817215 2.1964531 1.1409235 10.8720417 1.1439028 10.9594231.0099297.2740612.2353335.4895344.5084009.4895344z" fill="#f879ca"/></g></g></g><g><g><g><path d="m23.3911381 32.9360619c-.2658577-.0899353-.4087887-.3772621-.3199768-.6439629.0749893-.2235603 1.8680325-5.510788 4.4744072-8.9362068.1713257-.2234612.489172-.2664661.7123489-.0971069.2233181.1703415.2674465.4890289.097105.712347-2.5043964 3.2912617-4.3024673 8.5922604-4.3199215 8.6449528-.0887146.2638473-.3741188.4093666-.6439628.3199768z" fill="#f879ca"/></g></g></g></g><g><g><g><g><path d="m43.421524 30.9348545v17.1433392c0 .7930717-.5084 1.4743156-1.2201729 1.718399-.1931953.0711212-.3965073.1118317-.6100578.1118317h-29.2330732c-1.0066242 0-1.8302317-.8236046-1.8302317-1.8302307v-17.1433392c0-1.0066242.8236074-1.8302307 1.8302317-1.8302307h29.2330742c1.0066252 0 1.8302297.8236065 1.8302297 1.8302307z" fill="#65b9ff"/></g></g><g><g><path d="m43.421524 47.5087852v.5694084c0 1.0066261-.8236046 1.8302307-1.8302307 1.8302307h-29.2330732c-1.0066242 0-1.8302317-.8236046-1.8302317-1.8302307v-17.1433391c0-1.0066242.8236074-1.8302307 1.8302317-1.8302307h.5592289v16.5738697c0 1.0167999.8236704 1.8302917 1.8302946 1.8302917z" fill="#3e7fff"/></g></g><g><g><path d="m23.366 29.108h7.22v20.796h-7.22z" fill="#e83d62"/></g></g><g><g><path d="m23.366 47.47h7.22v2.434h-7.22z" fill="#ce2955"/></g></g></g><g><g><g><path d="m47.8050957 22.6581306-2.1963272 5.0738335c-.2338448.5490513-.8744354.7930737-1.4133682.5592289l-6.4363174-2.7860279-7.4531804-3.2334251-2.6843739-1.1591702-7.4328232-3.2232456-6.2634764-2.7149086c-.5490513-.2338448-.8032513-.8642569-.5592289-1.4133081l2.1962662-5.084013c.2338448-.5389347.8744345-.7931352 1.4133711-.5592909l8.9071999 3.8638992 12.2829304 5.3178577 9.0902176 3.9451981c.5389328.2338448.7931366.8642578.5491104 1.413372z" fill="#65b9ff"/></g></g><g><g><path d="m37.7590828 25.5051651-7.4531803-3.2334251c.7930737-2.0539608.6710625-3.7418251.4575748-4.7485123-.8744984.5287571-2.2064438 1.6065655-3.1419487 3.5893421l-7.4328232-3.2232456c.9456196-1.8913002 2.7149067-4.5044909 5.6941319-5.9076214l12.2829304 5.3178577c1.0168037 3.1418858.3152046 6.2228261-.4066849 8.2056046z" fill="#3e7fff"/></g></g><g><g><path d="m33.3184776 13.2961092-.6812401 1.5659161-.0101776.0304718-4.5857887-1.9827776-5.0128288-2.175972c-2.2979832-1.0066252-3.3452587-3.6909361-2.3182774-5.9787421 1.291296-2.8877463 5.0534782-3.5689869 7.3006344-1.3421867.6914177.6812403 1.2608261 1.3624809 1.5556755 1.9725993l1.7387543 3.6706429 1.9928932 4.199399z" fill="#e83d62"/></g></g><g><g><path d="m48.1129456 16.8244476c-1.0066261 2.2979202-3.7011147 3.3452568-5.9889221 2.3080978l-6.12117-2.7554951-3.3656158-1.5150251-.050827-.0203562.7117119-1.5862093 3.5791664-1.087986 4.7993393-1.4641981c.6507072-.1931953 1.5353203-.2237291 2.5012932-.1728392 3.1622427.1626617 5.1958464 3.4062635 3.9350241 6.2940112z" fill="#e83d62"/></g></g><g><g><path d="m36.6434441 14.9128532-.6405907 1.4641972-3.3656158-1.5150251-.0101776.0304718-4.5857887-1.9827776.6304131-1.4540195c.4982853-1.1591702 1.4641972-2.023428 2.6335449-2.3996391l1.9928932 4.199399 3.5791664-1.087986c.2237281.9151467.1525458 1.8708819-.2338448 2.7453793z" fill="#ce2955"/></g></g><g><g><path d="m35.2448692 14.3093166-.6303253 1.4545469-5.1768951-2.243391.6303253-1.4545469c.6194954-1.4295578 2.2805824-2.0862446 3.7101402-1.4667501l.0000076.0000029c1.4295578.6194944 2.0862427 2.2805804 1.4667473 3.7101382z" fill="#e83d62"/></g></g><g><g><path d="m36.225296 26.5059681c-.1263657.2557411-.4613266.3124084-.6700058.1132965l-1.8968964-1.7845039c-.0801582-.065815-.1716576-.1054649-.2744942-.1189499l-2.3991108-.1237755c-.3198128-.0143719-.4792805-.3628998-.3416119-.6447277 2.3874779-4.3988514.7442627-7.8432007.7442627-7.8432007s-3.650034 1.1505375-5.22719 5.9005375c-.098423.2988358-.4748592.4151306-.7040348.1915989l-1.7308254-1.6659203c-.0670776-.0601463-.1716576-.1054668-.2614117-.1132832l-2.586113-.1581936c-.287981-.0161133-.4756813-.2992744-.3754807-.5663567.5689259-1.4921551 2.489809-5.6740217 6.6835575-7.147788l9.684679 4.196826c1.7923167 4.0678101.0543482 8.3289414-.6453245 9.7644406z" fill="#e83d62"/></g></g></g></g><g><g><path d="m11.4712734 10.5014572-.9454412.2854223c-.181963.0570755-.3246412.1997976-.3817825.3817606l-.2854443.9454632c-.039197.1355791-.2318745.1355791-.2711582 0l-.2853575-.9454632c-.0571413-.181963-.1998196-.3246851-.3817825-.3817606l-.9490128-.2854223c-.135623-.0392628-.135623-.2319183 0-.2711592l.9490128-.2854223c.181963-.0570974.3246412-.1997976.3817825-.3817606l.2853575-.9454851c.0392838-.1355791.2319613-.1355791.2711582 0l.2854443.9454851c.0571413.181963.1998196.3246632.3817825.3817606l.9454412.2854223c.135623.0392409.135623.2318964 0 .2711592z" fill="#fcb73e"/></g></g><g><g><path d="m10.0798016 18.3019657-.6744595.2036133c-.1298084.0407181-.2315922.1425323-.272356.2723408l-.2036304.6744747c-.0279617.0967197-.1654139.0967197-.1934385 0l-.2035685-.6744747c-.0407629-.1298084-.1425476-.2316227-.272356-.2723408l-.6770072-.2036133c-.0967507-.0280094-.0967507-.1654472 0-.1934395l.6770072-.2036152c.1298084-.0407314.2315931-.1425323.272356-.2723408l.2035685-.67449c.0280247-.0967197.1654768-.0967197.1934385 0l.2036304.67449c.0407639.1298084.1425476.2316093.272356.2723408l.6744595.2036152c.0967512.0279923.0967512.1654301 0 .1934395z" fill="#46cc6b"/></g></g><g><g><path d="m19.5860748 21.1485386-.5294933.1598511c-.1019096.0319653-.1818161.1118965-.2138176.2138042l-.1598625.5295067c-.0219536.0759315-.1298618.0759315-.1518631 0l-.1598148-.5295067c-.0320015-.1019077-.111908-.181839-.2138157-.2138042l-.5314941-.1598511c-.0759563-.0219898-.0759563-.1298847 0-.1518631l.5314941-.1598492c.1019077-.0319786.1818142-.1118984.2138157-.2138062l.1598148-.5295181c.0220013-.0759315.1299095-.0759315.1518631 0l.1598625.5295181c.0320015.1019077.111908.1818275.2138176.2138062l.5294933.1598492c.0759545.0219784.0759545.1298733 0 .1518631z" fill="#46cc6b"/></g></g><g><g><g><path d="m5.4272552 12.0880442v.804245c0 .1331987-.1094403.2379341-.2379336.2379341-.1331406 0-.2379332-.1047354-.2379332-.2379341v-.804245c0-.1332569.1047926-.2379332.2379332-.2379332.1284932 0 .2379336.1046763.2379336.2379332z" fill="#e83d62"/></g></g><g><g><path d="m5.1893215 15.2034016c-.1331406 0-.2379332-.0959949-.2379332-.2291937v-.8042459c0-.133256.1047926-.2379332.2379332-.2379332.1284933 0 .2379336.1046772.2379336.2379332v.8042459c.0000001.1331987-.1094403.2291937-.2379336.2291937" fill="#e83d62"/></g></g><g><g><g><path d="m3.7462687 13.2931633h.8042455c.1331987 0 .2379336.1094398.2379336.2379332 0 .1331406-.1047349.2379341-.2379336.2379341l-.8042457-.000001c-.1332567 0-.2379334-.1047926-.2379334-.2379332.0000003-.1284933.104677-.2379341.2379336-.2379331z" fill="#e83d62"/></g></g><g><g><path d="m5.8281875 13.2931633.8042455.000001c.1331987 0 .2379332.1094398.2379332.2379332 0 .1331406-.1047349.2379332-.2379336.2379332h-.8042456c-.1332569 0-.2379336-.1047926-.2379336-.2379332.0000004-.1284934.1046772-.2379342.2379341-.2379342z" fill="#e83d62"/></g></g></g></g><g><g><g><path d="m13.6514721 16.8671303v.6856823c0 .1135616-.0933065.2028561-.202857.2028561-.113513 0-.202857-.0892944-.202857-.2028561v-.6856823c0-.1136131.089344-.202858.202857-.202858.1095505 0 .202857.0892449.202857.202858z" fill="#65b9ff"/></g></g><g><g><path d="m13.4486151 19.5232162c-.113513 0-.202857-.0818424-.202857-.195406v-.6856822c0-.1136112.089344-.2028561.202857-.2028561.1095505 0 .202857.0892448.202857.2028561v.6856823c0 .1135635-.0933065.1954059-.202857.1954059" fill="#65b9ff"/></g></g><g><g><g><path d="m12.2182989 17.8945885h.6856823c.1135626 0 .202857.0933056.202857.2028561 0 .1135139-.0892944.202858-.202857.202858h-.6856823c-.1136122 0-.202857-.089344-.202857-.202858 0-.1095505.0892448-.2028561.202857-.2028561z" fill="#65b9ff"/></g></g><g><g><path d="m13.9932985 17.8945885h.6856823c.1135626 0 .202857.0933075.202857.202858 0 .113512-.0892944.2028561-.202857.2028561h-.6856833c-.1136112 0-.202857-.089344-.2028561-.2028561.0000001-.1095524.089245-.202858.2028571-.202858z" fill="#65b9ff"/></g></g></g></g><g><g><g><g><path d="m15.1010895 12.9321518v.6045666c0 .1001282-.0822687.1788597-.1788588.1788597-.1000843 0-.1788597-.0787315-.1788597-.1788597v-.6045666c0-.1001711.0787754-.1788588.1788597-.1788588.0965901 0 .1788588.0786877.1788588.1788588z" fill="#65b9ff"/></g></g><g><g><path d="m15.1010895 14.4971695v.6045666c0 .1001272-.0822687.1788588-.1788588.1788588-.1000843 0-.1788597-.0787315-.1788597-.1788588v-.6045666c0-.100172.0787754-.1788597.1788597-.1788597.0965901 0 .1788588.0786877.1788588.1788597z" fill="#65b9ff"/></g></g></g><g><g><g><path d="m13.8374605 13.8380623.6045666.000001c.1001282 0 .1788588.0822678.1788588.1788588 0 .1000843-.0787315.1788588-.1788588.1788588h-.6045666c-.100172 0-.1788597-.0787745-.1788597-.1788588 0-.0965911.0786877-.1788598.1788597-.1788598z" fill="#65b9ff"/></g></g><g><g><path d="m15.4024773 13.8380632h.6045666c.1001282 0 .1788597.0822687.1788597.1788597 0 .1000843-.0787315.1788588-.1788597.1788588h-.6045666c-.1001711 0-.1788588-.0787754-.1788588-.1788597 0-.096591.0786877-.1788588.1788588-.1788588z" fill="#65b9ff"/></g></g></g></g></g></svg>